<svg width="131" height="116" viewBox="0 0 131 116" fill="none" xmlns="http://www.w3.org/2000/svg">
<path d="M30.348 22.3667C28.7983 23.9759 27.0486 25.4641 25.4016 27.0493C23.3332 28.4314 21.4706 30.1317 20.1937 32.2598C18.1346 35.6918 16.9129 39.3716 15.2011 42.8902C14.3659 44.6071 14.3096 46.7692 13.5728 48.5588C13.0137 49.9164 12.8395 51.7919 12.5896 53.2288C12.0528 56.3151 10.654 59.3593 10.654 62.5228C10.654 64.3342 11.0253 65.8762 11.1917 67.6229C11.36 69.3907 12.0416 70.5771 12.4513 72.2161C12.9456 74.1933 14.11 75.759 14.9553 77.6082C15.2455 78.243 15.354 78.6579 15.9692 79.1136C16.7125 79.6642 16.5127 80.1309 16.9217 80.8342C17.7854 82.3197 18.6787 83.4439 19.3642 85.0433C19.6705 85.758 19.6299 86.5686 19.9479 87.2401C20.1972 87.7663 20.7433 88.2547 21.054 88.807C22.0682 90.61 23.5474 92.1027 24.7562 93.7689C25.3093 94.5312 26.1225 95.5346 26.9683 95.981C27.9847 96.5174 28.4691 96.4684 28.8425 97.7323C29.5051 99.9748 33.4884 101.367 35.1255 102.879C35.9494 103.639 37.5531 104.1 38.5819 104.614C40.2417 105.444 42.0842 106.035 43.6207 107.042C46.2005 108.732 48.6214 108.977 51.6857 108.977C53.2083 108.977 54.7009 108.604 56.1739 108.235L56.2789 108.209C57.5355 107.895 58.9355 107.089 60.2115 107.042C61.5528 106.992 62.9503 107.193 64.2824 107.026C64.9006 106.949 65.2905 106.489 65.9569 106.489H67.8771C69.3589 106.489 70.9558 106.333 72.3167 105.72C72.9682 105.427 73.7436 105.548 74.3752 105.26C75.0603 104.946 75.8208 104.319 76.5873 104.276C79.7756 104.099 82.9151 104.121 86.0042 103.17C87.6855 102.653 89.1838 101.865 90.6742 100.958C91.6302 100.376 92.3166 99.4567 93.3164 98.9151C94.1084 98.4862 94.5187 98.4195 95.1445 97.7937C97.6309 95.3074 100.509 92.8446 103.379 90.8194C107.221 88.107 110.017 84.7117 112.55 80.7727C114.234 78.1524 115.453 74.0584 115.453 70.9411C115.453 68.5442 116.88 66.5102 117.619 64.3662C118.325 62.3189 118.495 60.2423 118.495 58.0985C118.495 54.7408 118.379 51.7469 117.511 48.482C116.895 46.1603 116.315 43.8365 115.668 41.5077C115.198 39.8155 114.03 38.0853 113.379 36.4229C113.007 35.4712 111.61 32.5259 110.875 32.1062C109.367 31.2445 108.336 30.4724 107.649 28.8494C107.108 27.5716 105.733 26.7423 104.945 25.6542C104.371 24.8614 103.418 24.3843 102.872 23.5342C102.489 22.9395 102.113 22.361 101.612 21.8598C100.885 21.1333 100.455 20.3118 99.8145 19.5555C99.2738 18.9164 98.3479 18.6074 97.7714 17.9732C96.9823 17.1052 96.3876 15.9019 95.759 14.9008C95.0715 13.806 94.0663 13.2868 93.0553 12.5351C91.4507 11.3419 89.5723 10.7021 88.078 9.43199C86.5631 8.14427 83.5601 7.18151 81.5953 6.94336C79.7879 6.72428 78.0034 5.56079 76.2033 5.56079C72.7924 5.56079 69.3356 5.28427 65.8954 5.28427C64.1266 5.28427 62.8114 6.42773 61.1332 6.65148C60.3935 6.75011 59.8287 6.94287 59.1362 7.21987C58.0325 7.66133 56.8453 7.41431 55.7412 7.91116C52.6867 9.28571 49.5401 9.41244 46.6623 11.1525C45.8105 11.6676 44.9916 11.8957 44.1122 12.3354C43.3566 12.7132 43.0209 13.3804 42.3303 13.8409C41.0613 14.6868 39.8329 15.3418 38.5973 16.1912C37.0385 17.2629 35.6944 18.6524 33.9427 19.1714C32.3398 19.6464 31.5103 21.1596 30.348 22.3667Z" fill="#00C5FE"/>
<path d="M24.7562 27.6819C26.5837 25.8544 28.594 24.1881 30.348 22.3667C31.5103 21.1596 32.3398 19.6464 33.9427 19.1714C35.6944 18.6524 37.0385 17.2629 38.5973 16.1912C39.8329 15.3418 41.0613 14.6868 42.3303 13.8409C43.0209 13.3804 43.3566 12.7132 44.1122 12.3354C44.9916 11.8957 45.8105 11.6676 46.6623 11.1525C49.5401 9.41244 52.6867 9.28571 55.7412 7.91116C56.8453 7.41431 58.0325 7.66133 59.1362 7.21987C59.8287 6.94287 60.3935 6.75011 61.1332 6.65148C62.8114 6.42773 64.1266 5.28427 65.8954 5.28427C69.3356 5.28427 72.7924 5.56079 76.2033 5.56079C78.0034 5.56079 79.7879 6.72428 81.5953 6.94336C83.5601 7.18151 86.5631 8.14427 88.078 9.43199C89.5723 10.7021 91.4507 11.3419 93.0553 12.5351C94.0663 13.2868 95.0715 13.806 95.759 14.9008C96.3876 15.9019 96.9823 17.1052 97.7714 17.9732C98.3479 18.6074 99.2738 18.9164 99.8145 19.5555C100.455 20.3118 100.885 21.1333 101.612 21.8598C102.113 22.361 102.489 22.9395 102.872 23.5342C103.418 24.3843 104.371 24.8614 104.945 25.6542C105.733 26.7423 107.108 27.5716 107.649 28.8494C108.336 30.4724 109.367 31.2445 110.875 32.1062C111.61 32.5259 113.007 35.4712 113.379 36.4229C114.03 38.0853 115.198 39.8155 115.668 41.5077C116.315 43.8365 116.895 46.1603 117.511 48.482C118.379 51.7469 118.495 54.7408 118.495 58.0985C118.495 60.2423 118.325 62.3189 117.619 64.3662C116.88 66.5102 115.453 68.5442 115.453 70.9411C115.453 74.0584 114.234 78.1524 112.55 80.7727C110.017 84.7117 107.221 88.107 103.379 90.8194C100.509 92.8446 97.6309 95.3074 95.1445 97.7937C94.5187 98.4196 94.1084 98.4862 93.3164 98.9151C92.3166 99.4567 91.6302 100.376 90.6742 100.958C89.1838 101.865 87.6855 102.653 86.0042 103.17C82.9151 104.121 79.7756 104.099 76.5873 104.276C75.8208 104.319 75.0603 104.946 74.3752 105.26C73.7436 105.548 72.9682 105.427 72.3167 105.72C70.9558 106.333 69.3589 106.489 67.8771 106.489C67.237 106.489 66.597 106.489 65.9569 106.489C65.2905 106.489 64.9006 106.949 64.2824 107.026C62.9503 107.193 61.5528 106.992 60.2115 107.042C58.9355 107.089 57.5355 107.895 56.2789 108.209C54.7718 108.586 53.2445 108.977 51.6857 108.977C48.6214 108.977 46.2005 108.732 43.6207 107.042C42.0842 106.035 40.2417 105.444 38.582 104.614C37.5531 104.1 35.9494 103.639 35.1255 102.879C33.4884 101.367 29.5051 99.9748 28.8425 97.7323C28.4691 96.4684 27.9847 96.5174 26.9683 95.981C26.1225 95.5346 25.3093 94.5312 24.7562 93.7689C23.5474 92.1027 22.0682 90.61 21.054 88.807C20.7433 88.2547 20.1972 87.7663 19.9479 87.2401C19.6299 86.5686 19.6705 85.758 19.3642 85.0433C18.6787 83.4439 17.7854 82.3197 16.9217 80.8342C16.5127 80.1308 16.7125 79.6642 15.9692 79.1136C15.354 78.6579 15.2455 78.243 14.9553 77.6082C14.11 75.759 12.9456 74.1933 12.4513 72.2161C12.0416 70.5771 11.36 69.3907 11.1917 67.6229C11.0253 65.8762 10.654 64.3342 10.654 62.5228C10.654 59.3593 12.0528 56.3151 12.5896 53.2288C12.8395 51.7919 13.0137 49.9164 13.5728 48.5588C14.3096 46.7692 14.3659 44.6071 15.2011 42.8902C16.9129 39.3716 18.1346 35.6918 20.1937 32.2598C22.1122 29.0624 25.3528 26.8306 28.6274 25.1933" stroke="#00C5FE" stroke-width="3.65769" stroke-linecap="round"/>
<path d="M45.1637 42.8177C45.2225 42.7446 45.284 42.6754 45.3483 42.6103C48.0458 39.7286 50.7172 36.7478 54.6263 35.5756C55.3828 35.3487 55.8101 34.8567 56.5555 34.8008C57.1179 34.7587 58.4081 34.311 58.9745 34.0881C60.7163 33.4025 62.5936 33.1251 64.3484 32.4301C66.1788 31.7053 68.0573 31.7329 69.9979 31.7329C70.3036 31.7329 70.8292 31.6272 71.1003 31.7948C71.5661 32.0829 71.2294 32.7629 71.927 32.8485C72.6195 32.9334 73.3313 33.0349 74.0246 33.1429C75.6574 33.3971 77.6905 33.4717 79.0923 34.181C79.5123 34.3936 80.5023 34.3504 80.6846 34.8628C80.9733 35.6746 80.8451 35.707 81.4654 36.3348C82.2592 37.1383 82.7618 37.7578 83.3639 38.7056C83.8161 39.4175 84.3486 40.4947 84.8796 41.0918C85.8499 42.1829 87.31 42.8711 87.6508 44.4232C87.7925 45.0684 88.5358 45.7932 88.7684 46.4995C88.9539 47.0625 89.5357 47.7162 89.7789 48.4054C90.3586 50.0481 90.6882 51.7656 91.1568 53.4257C92.0142 56.4628 90.6669 60.2335 90.6669 63.2495C90.6669 64.2321 90.1157 65.0056 90.1157 66.0386C90.1157 66.9733 89.3738 67.7281 89.0134 68.5488C87.7773 71.3635 84.494 72.6213 82.583 74.8397C81.0937 76.5687 78.6718 77.1525 76.6273 77.8767C75.6911 78.2084 74.643 78.1731 73.7184 78.605C72.6195 79.1183 71.6701 79.8296 70.4879 80.201C68.6889 80.766 66.0698 80.2629 64.18 80.2629C61.7364 80.2629 59.4646 79.8645 57.0454 79.6896C55.9622 79.6113 54.6818 79.5025 53.6159 79.2867C52.9791 79.1579 51.1653 79.1351 50.7069 78.7444C49.7652 77.9419 47.8386 77.8377 47.1396 76.7766C46.4719 75.7629 45.0369 75.0073 44.2153 74.1269C43.2534 73.0962 42.572 71.7607 41.735 70.6716C40.4926 69.055 40.2346 67.5372 40.2346 65.4808V62.4128C40.2346 61.0982 41.0954 60.1006 41.3341 58.8029C41.3056 55.9505 41.0999 53.0765 42.225 50.4197C43.2308 48.0446 43.4291 44.8666 45.1637 42.8177Z" fill="#421793"/>
<path d="M45.3483 42.6103C43.7309 44.2472 43.8937 48.5185 43.3273 50.9156C42.6953 53.5902 41.8252 56.0695 41.337 58.787C41.1024 60.0925 40.2346 61.0928 40.2346 62.4128C40.2346 63.4354 40.2346 64.4581 40.2346 65.4808C40.2346 67.5372 40.4926 69.055 41.735 70.6716C42.572 71.7607 43.2534 73.0962 44.2153 74.1269C45.0369 75.0073 46.4719 75.7629 47.1396 76.7766C47.8386 77.8377 49.7652 77.9419 50.7069 78.7444C51.1653 79.1351 52.9791 79.1579 53.6159 79.2867C54.6818 79.5025 55.9622 79.6113 57.0454 79.6896C59.4646 79.8645 61.7364 80.2629 64.18 80.2629C66.0698 80.2629 68.6889 80.766 70.4879 80.2009C71.6701 79.8296 72.6195 79.1183 73.7184 78.605C74.643 78.1731 75.6911 78.2084 76.6273 77.8767C78.6718 77.1525 81.0937 76.5687 82.583 74.8397C84.494 72.6213 87.7773 71.3635 89.0134 68.5488C89.3738 67.7281 90.1157 66.9733 90.1157 66.0386C90.1157 65.0056 90.6669 64.2321 90.6669 63.2495C90.6669 60.2335 92.0142 56.4628 91.1568 53.4257C90.6882 51.7656 90.3586 50.0481 89.7789 48.4054C89.5357 47.7162 88.9539 47.0625 88.7684 46.4995C88.5358 45.7932 87.7925 45.0684 87.6508 44.4232C87.31 42.8711 85.8499 42.1829 84.8796 41.0918C84.3486 40.4947 83.8161 39.4175 83.3639 38.7056C82.7618 37.7578 82.2592 37.1383 81.4654 36.3348C80.8451 35.707 80.9733 35.6746 80.6846 34.8628C80.5023 34.3504 79.5123 34.3936 79.0923 34.181C77.6905 33.4717 75.6574 33.3971 74.0246 33.1429C73.3313 33.0349 72.6195 32.9334 71.927 32.8485C71.2294 32.7629 71.5661 32.0829 71.1003 31.7948C70.8292 31.6272 70.3036 31.7329 69.9979 31.7329C68.0573 31.7329 66.1788 31.7053 64.3484 32.4301C62.5936 33.1251 60.7163 33.4025 58.9745 34.0881C58.4081 34.311 57.1179 34.7587 56.5555 34.8008C55.8101 34.8567 55.3828 35.3487 54.6263 35.5756C50.7172 36.7478 48.0458 39.7286 45.3483 42.6103ZM45.3483 42.6103C43.4417 44.647 43.2654 47.9628 42.225 50.4197C41.0286 53.2448 41.337 56.3155 41.337 59.3448" stroke="#421793" stroke-width="3.65769" stroke-linecap="round"/>
<g clip-path="url(#clip0_12_21)">
<rect x="28.0423" y="9.75385" width="24.3846" height="24.3846" rx="12.1923" fill="white"/>
<rect x="32.9192" y="12.1923" width="19.5077" height="19.5077" rx="9.75385" fill="black"/>
<rect x="34.1384" y="14.6308" width="7.31538" height="7.31538" rx="3.65769" fill="white"/>
</g>
<g clip-path="url(#clip1_12_21)">
<rect x="71.9346" y="7.31538" width="24.3846" height="24.3846" rx="12.1923" fill="white"/>
<rect x="76.8116" y="9.75385" width="19.5077" height="19.5077" rx="9.75385" fill="black"/>
<rect x="78.0308" y="12.1923" width="7.31538" height="7.31538" rx="3.65769" fill="white"/>
</g>
<path d="M59.7423 22.175C60.3343 23.1279 60.7537 23.6285 61.7387 24.0951C62.2529 24.3386 63.0228 23.9616 63.5188 23.8662C64.4506 23.687 65.3873 22.7868 65.8077 21.9461" stroke="black" stroke-width="3.65769" stroke-linecap="round"/>
<defs>
<clipPath id="clip0_12_21">
<rect x="28.0423" y="9.75385" width="24.3846" height="24.3846" rx="12.1923" fill="white"/>
</clipPath>
<clipPath id="clip1_12_21">
<rect x="71.9346" y="7.31538" width="24.3846" height="24.3846" rx="12.1923" fill="white"/>
</clipPath>
</defs>
</svg>
