<svg width="125" height="135" viewBox="0 0 125 135" fill="none" xmlns="http://www.w3.org/2000/svg">
<path d="M23.2694 23.6494C24.2179 22.7567 25.4526 22.1327 26.6066 21.5558C27.5963 21.0609 28.8637 21.2509 29.7863 20.6743C31.0728 19.8702 32.5129 18.5492 34.1624 18.5492C34.8552 18.5492 35.9742 18.1366 36.6495 17.9195C37.3603 17.6911 38.0962 17.5842 38.7903 17.3528C40.2352 16.8712 41.8202 16.3124 43.3868 15.9991" stroke="#FFD753" stroke-width="5.59701" stroke-linecap="round"/>
<path d="M33.4698 19.6826C33.4698 18.5841 34.3019 21.727 34.5402 22.7994C34.7956 23.9488 35.0644 25.0593 35.3902 26.1995C35.966 28.2147 37.452 29.5558 38.2237 31.5201C38.9686 33.4162 39.96 34.9344 40.6163 36.9036C41.1178 38.4079 41.2398 40.0395 41.9701 41.5001" stroke="#FFD753" stroke-width="5.59701" stroke-linecap="round"/>
<path d="M59.7015 11.194C59.7015 15.0157 60.9453 18.7261 60.9453 22.6262C60.9453 25.5402 61.5671 28.2368 61.5671 31.2004C61.5671 34.4818 61.5671 37.7633 61.5671 41.0448" stroke="#FF3F79" stroke-width="5.59701" stroke-linecap="round"/>
<path d="M106.289 19.3992C104.58 18.4379 103.715 16.5834 101.63 16.062C98.6445 15.3157 94.6998 13.8506 91.5553 14.724C89.3363 15.3404 87.7659 17.317 86.3607 18.9899C85.5737 19.9268 85.5725 21.1931 84.755 22.1067C83.7439 23.2368 83.0976 25.3221 82.6457 26.7189C81.7088 29.6148 82.4459 31.7246 83.6374 34.3062C84.4054 35.9703 85.7854 35.6859 87.132 36.5572C88.4435 37.4059 89.9468 37.7507 91.3979 38.3832C92.5927 38.9041 94.0508 38.753 95.3017 39.0759C96.8275 39.4696 97.5207 40.3666 99.0482 40.3666C100.781 40.3666 104.306 39.4017 104.306 37.2499" stroke="#FFD753" stroke-width="5.59701" stroke-linecap="round"/>
<path d="M14.9254 55.9702C16.8299 57.6483 21.2719 56.6486 23.5874 56.6486C26.4018 56.6486 29.3099 56.7002 32.0745 57.327C34.4611 57.8681 37.018 58.5378 39.1791 59.7015" stroke="#FF3F79" stroke-width="5.59701" stroke-linecap="round"/>
<path d="M27.2766 59.7015C33.0245 59.7015 27.3638 64.9842 27.2766 65.9786C27.0059 69.0656 26.3934 72.1677 26.2003 75.2462C26.0183 78.1472 26.2003 81.0538 26.2003 83.9552" stroke="#FF3F79" stroke-width="5.59701" stroke-linecap="round"/>
<path d="M51.0372 76.6347C51.6769 70.0249 57.1031 64.6201 60.9385 59.6341C63.0277 56.9182 65.0636 54.108 67.4712 51.7004" stroke="#FFD753" stroke-width="5.59701" stroke-linecap="round"/>
<path d="M66.3377 52.5505C67.6031 54.844 67.7284 57.673 69.0767 60.0433C69.9681 61.6106 70.9203 63.0512 71.5638 64.75C72.1935 66.4124 72.3666 68.2352 73.0435 69.8659C73.7902 71.6647 74.9627 72.7996 75.3417 74.8087C75.5158 75.7314 75.6881 76.5433 75.6881 77.4847" stroke="#FFD753" stroke-width="5.59701" stroke-linecap="round"/>
<path d="M54.1539 70.6845C59.8535 70.6845 64.6555 68.0741 70.0211 67.001" stroke="#FFD753" stroke-width="5.59701" stroke-linecap="round"/>
<path d="M107.147 55.4022C106.939 54.5971 102.198 54.5862 101.428 54.4839C99.8956 54.2801 97.9455 53.8457 96.4117 54.3138C93.7662 55.1213 91.3556 56.4925 89.4654 58.4633C84.7365 63.3942 84.8139 72.1742 88.5182 77.5613C90.0254 79.7531 94.3076 81.796 96.8853 82C100.603 82.2942 104.431 81.9063 107.761 80.1973C108.868 79.629 109.889 78.72 111.093 78.3606C111.822 78.1433 112.162 77.3616 112.83 76.9661C114.037 76.251 114.558 74.7948 115.672 74.0751" stroke="#FF3F79" stroke-width="5.59701" stroke-linecap="round"/>
<path d="M19.5861 95.6187C17.2052 95.6187 24.3181 95.0195 26.6382 94.4853C29.8438 93.7472 33.2046 93.2567 36.3191 92.2185C38.5178 91.4857 40.7915 91.0852 43.1036 91.0852" stroke="#FFD753" stroke-width="5.59701" stroke-linecap="round"/>
<path d="M32.053 94.7686C33.5006 96.5379 33.7205 99.1413 34.1939 101.286C34.757 103.836 34.3198 106.826 34.3198 109.44C34.3198 112.413 34.6031 115.322 34.6031 118.286" stroke="#FFD753" stroke-width="5.59701" stroke-linecap="round"/>
<path d="M46.6347 108.173C46.6347 106.922 46.3939 105.403 47.0684 104.256C48.1419 102.43 49.828 100.477 51.33 98.9337C52.697 97.5291 55.0428 96.1664 56.987 95.5706C61.4968 94.1886 63.5349 96.4082 66.5096 99.2977C67.5203 100.279 68.319 101.406 69.1684 102.505C69.987 103.564 70.7244 103.739 71.7329 104.481C73.5449 105.814 74.3197 108.957 74.4482 110.965C74.6651 114.354 75.1082 117.822 72.6945 120.516C71.4384 121.919 68.3451 122.773 66.4719 123.307C64.7715 123.793 62.8234 123.789 61.2297 124.4C58.1609 125.575 54.4909 125.009 52.0654 122.839C48.2738 119.448 44.0861 116.475 43.052 111.45C42.395 108.257 44.0421 105.294 47.653 104.741" stroke="#FF3F79" stroke-width="5.59701" stroke-linecap="round"/>
<path d="M110.539 95.6187C110.539 94.4842 104.14 94.6173 103.204 94.4853C101.016 94.1769 98.8304 94.0146 96.6554 93.6983C94.3842 93.3679 91.8644 93.0686 89.5718 93.0686" stroke="#FFD753" stroke-width="5.59701" stroke-linecap="round"/>
<path d="M89.572 93.3519C89.572 98.3805 88.1977 103.511 87.5256 108.495C87.1493 111.287 85.8885 113.739 85.8885 116.586" stroke="#FFD753" stroke-width="5.59701" stroke-linecap="round"/>
<path d="M85.605 117.719C89.788 117.719 93.9393 117.153 98.1351 117.153C99.7341 117.153 101.339 117.436 102.889 117.436" stroke="#FFD753" stroke-width="5.59701" stroke-linecap="round"/>
<path d="M90.422 103.552C93.8301 103.552 97.5923 104.141 100.906 104.969" stroke="#FFD753" stroke-width="5.59701" stroke-linecap="round"/>
<rect x="0.5" y="0.5" width="124" height="133.328" rx="19.5" stroke="white" stroke-dasharray="2 2"/>
</svg>
