<svg width="74" height="74" viewBox="0 0 74 74" fill="none" xmlns="http://www.w3.org/2000/svg">
<rect width="74" height="74" rx="37" fill="#EF6177"/>
<path d="M48.6347 26.9905L49.7811 26.0231L49.7811 26.0231L48.6347 26.9905ZM48.5241 26.8594L47.3777 27.8268L47.3777 27.8268L48.5241 26.8594ZM29.274 49.8L29.7483 48.377L29.274 49.8ZM30.6441 50.2567L31.1184 48.8337L31.1184 48.8337L30.6441 50.2567ZM37.2686 50.9675L37.4303 52.4587L37.4303 52.4587L37.2686 50.9675ZM38.8154 50.7998L38.9771 52.291L38.8154 50.7998ZM32.9038 22.8792L32.3601 21.4812L32.9038 22.8792ZM23.5058 25.3959C23.1722 26.1542 23.5164 27.0393 24.2747 27.373L36.6315 32.8099C37.3897 33.1436 38.2749 32.7994 38.6085 32.0411C38.9422 31.2828 38.5979 30.3976 37.8397 30.064L26.8559 25.2311L31.6888 14.2474C32.0224 13.4891 31.6782 12.6039 30.9199 12.2703C30.1616 11.9366 29.2765 12.2809 28.9428 13.0391L23.5058 25.3959ZM22.494 44.0424L21.1828 44.7709L22.494 44.0424ZM22.6288 44.2851L23.94 43.5566L23.94 43.5566L22.6288 44.2851ZM49.6218 43.5264L48.3011 42.8153L49.6218 43.5264ZM50.2338 42.3898L48.9131 41.6787L50.2338 42.3898ZM46.3838 47.5364L45.4104 46.3952L46.3838 47.5364ZM34.8997 22.2714L34.572 20.8077L34.8997 22.2714ZM51.8788 35.8653L50.3788 35.8653L50.3788 35.8653L51.8788 35.8653ZM49.7811 26.0231L49.6705 25.892L47.3777 27.8268L47.4883 27.9578L49.7811 26.0231ZM28.7996 51.223L30.1698 51.6798L31.1184 48.8337L29.7483 48.377L28.7996 51.223ZM37.4303 52.4587L38.9771 52.291L38.6537 49.3085L37.107 49.4762L37.4303 52.4587ZM32.3601 21.4812L24.3351 24.602L25.4225 27.398L33.4474 24.2772L32.3601 21.4812ZM21.1828 44.7709L21.3176 45.0136L23.94 43.5566L23.8052 43.314L21.1828 44.7709ZM50.9425 44.2376L51.5545 43.101L48.9131 41.6787L48.3011 42.8153L50.9425 44.2376ZM47.3572 48.6777C48.817 47.4326 50.0328 45.927 50.9425 44.2376L48.3011 42.8153C47.5676 44.1774 46.5874 45.3913 45.4104 46.3952L47.3572 48.6777ZM20.4859 33.7779C19.0529 37.3605 19.3088 41.3979 21.1828 44.7709L23.8052 43.314C22.3696 40.7298 22.1735 37.6367 23.2714 34.892L20.4859 33.7779ZM34.572 20.8077C33.8188 20.9763 33.0794 21.2014 32.3601 21.4812L33.4474 24.2772C34.0263 24.0521 34.6213 23.8709 35.2274 23.7352L34.572 20.8077ZM30.1698 51.6798C32.5058 52.4584 34.9823 52.7241 37.4303 52.4587L37.107 49.4762C35.0878 49.6951 33.0452 49.476 31.1184 48.8337L30.1698 51.6798ZM29.7483 48.377C27.2774 47.5534 25.205 45.8334 23.94 43.5566L21.3176 45.0136C22.947 47.9465 25.6167 50.1621 28.7996 51.223L29.7483 48.377ZM38.9771 52.291C42.07 51.9557 44.9902 50.6966 47.3572 48.6777L45.4104 46.3952C43.5019 48.0229 41.1474 49.0381 38.6537 49.3085L38.9771 52.291ZM50.3788 35.8653C50.3788 37.8945 49.8752 39.892 48.9131 41.6787L51.5545 43.101C52.752 40.8772 53.3788 38.391 53.3788 35.8653L50.3788 35.8653ZM47.4883 27.9578C49.3549 30.1699 50.3788 32.9709 50.3788 35.8653L53.3788 35.8653C53.3788 32.2628 52.1044 28.7764 49.7811 26.0231L47.4883 27.9578ZM49.6705 25.892C45.9782 21.5164 40.159 19.5568 34.572 20.8077L35.2274 23.7352C39.7235 22.7286 44.4064 24.3055 47.3777 27.8268L49.6705 25.892Z" fill="white"/>
</svg>
