<svg width="120" height="117" viewBox="0 0 120 117" fill="none" xmlns="http://www.w3.org/2000/svg">
<path d="M36.6973 55.5382C38.2488 56.745 38.4374 58.8963 40.8186 58.8963C40.8186 61.2242 41.7187 61.3924 40.3388 63.2138C39.018 64.9573 37.0496 66.681 36.1958 68.7088C35.4236 70.5427 33.9484 73.0896 32.358 74.5963C31.4641 75.4431 30.9249 76.2796 30.5264 77.431C30.0071 78.931 28.3177 80.4859 27.4736 81.8575C26.0254 84.2108 24.3993 87.0936 22.5892 89.1624L22.5831 89.1693C21.133 90.8265 18.8386 93.4487 18.8386 95.8785C18.8386 100.393 21.3945 103.886 24.508 106.999C25.2304 107.722 25.7061 108.671 26.5141 109.332C28.1508 110.672 31.5796 109.921 33.5137 109.921C35.8857 109.921 38.1954 110.129 40.4261 109.332C40.997 109.129 41.3274 108.937 41.7998 108.569C42.1309 108.312 42.3886 107.038 42.3886 107.457C42.3886 108.153 44.9166 105.316 45.3323 104.993C47.23 103.517 48.832 101.809 49.9333 99.7162C50.9325 97.8177 52.5652 96.0099 53.7711 94.134C54.7856 92.5559 56.8026 91.0716 56.911 89.1187C56.9468 88.4753 57.8167 87.2037 58.1104 86.5675C58.8738 84.9133 61.722 80.8757 63.758 80.5056C66.3338 80.0372 66.3505 81.7352 67.5085 83.5365C68.1518 84.5371 68.3284 85.873 69.0785 86.7637C70.0013 87.8596 69.9786 89.6457 70.823 90.6887C72.4098 92.649 73.7578 95.1193 74.8788 97.3612C75.3874 98.3784 75.9722 99.5789 76.6232 100.501C77.2355 101.369 78.2207 102.286 78.5857 103.162C78.8495 103.795 80.3975 105.254 80.9407 105.604C81.8003 106.156 82.8748 106.208 83.7755 106.781C84.8784 107.483 85.9648 108.232 87.0899 108.896C90.2535 110.766 92.5936 110.341 95.7467 108.962C98.1778 107.898 100.232 107.718 101.874 105.298C102.566 104.278 103.266 103.278 104.098 102.377C105.184 101.2 106.84 100.279 107.762 99.0184C109.143 97.1276 110.203 96.0263 109.877 93.4144C109.395 89.5632 105.181 86.0641 103.313 82.8388C102.429 81.3112 101.532 79.4285 100.304 78.1288C98.6302 76.3564 98.0734 74.0323 96.0084 72.6556C95.2177 72.1285 95.0197 70.4291 94.1985 69.69C93.4539 69.0199 93.0077 68.0698 92.3886 67.3132C90.8069 65.38 88.2388 64.6753 86.0432 63.3882C85.4664 63.0501 84.7149 63.2608 84.0807 63.2138C83.4096 63.1641 83.0698 62.3516 82.4235 62.1235C80.4817 61.4382 81.7526 59.9656 82.031 58.5038C82.2287 57.4658 84.5964 55.9078 85.5635 55.3638C86.422 54.8809 87.254 53.9766 87.8967 53.2269C89.5193 51.3338 91.3959 49.2257 92.5849 46.9469C93.8734 44.4772 95.4436 41.709 97.6656 39.9037C98.6369 39.1145 99.0342 37.7013 100.478 37.7013C101.454 37.7013 103.261 36.8639 103.837 36.1313C104.632 35.1184 105.633 34.5933 106.737 33.9726C108.214 33.1418 108.756 31.374 109.898 30.2002L109.92 30.178C113.161 26.8467 116.703 23.2071 114.805 18.2726C114.465 17.3904 113.767 17.0667 113.431 16.3101C113.206 15.805 112.769 15.8641 112.472 15.4815C111.989 14.8605 112.172 14.1371 111.468 13.5844C109.851 12.3137 109.532 10.4155 108.328 8.74359C105.231 4.44206 97.9737 4.33804 93.806 7.34803C88.7292 11.0146 83.0788 13.9269 79.0873 18.8395C77.2558 21.0936 74.7209 22.6842 72.9817 24.9669C71.0448 27.5091 68.4767 29.7813 66.0258 31.8138C64.6793 32.9304 61.5849 37.4775 59.3533 35.6516C57.7629 34.3504 56.0235 33.3259 54.3598 32.0319C52.816 30.8311 51.0637 29.7247 49.2791 28.8919C47.9187 28.257 47.239 28.7427 46.1173 27.4963C45.3778 26.6747 44.0979 26.3288 43.1954 25.7083C41.9608 24.8595 39.9229 22.8216 39.0741 21.587C37.9456 19.9455 36.1509 20.4536 35.1273 18.8614C34.341 17.6382 33.4635 16.1688 33.3393 14.7401C33.1615 12.6961 30.1445 11.8261 28.6511 10.7061C27.0036 9.47045 23.2175 10.2264 21.2808 10.2264C18.9542 10.2264 15.0868 10.0312 13.1692 11.6001C10.9701 13.3994 8.57023 14.9814 8.26292 18.0545C8.13978 19.286 8.24112 20.5665 8.24112 21.8051C8.24112 22.9309 8.94573 23.7509 9.02612 24.8361C9.15688 26.6014 10.021 29.3112 11.2067 30.6363C11.838 31.3419 12.306 32.4471 12.6458 33.2966C12.9198 33.9815 13.934 34.054 14.3249 34.7576C16.5995 38.8519 21.0467 39.5974 24.8133 42.0188C26.5932 43.163 28.4821 43.9772 29.5233 45.9438C30.066 46.9689 30.4642 47.8975 31.3114 48.7785C32.0481 49.5448 33.1301 50.0704 33.3393 51.2207C33.4839 52.0161 34.5753 52.0556 34.9311 52.8562C35.3319 53.758 35.9003 54.9183 36.6973 55.5382Z" fill="#FF3F79" stroke="#FF3F79" stroke-width="3.69231" stroke-linecap="round"/>
<path d="M21.5861 21.6089C21.748 22.2568 23.631 24.7235 24.3336 25.0541C25.0457 25.3893 26.9571 24.501 27.4736 25.5339" stroke="white" stroke-width="3.69231" stroke-linecap="round"/>
<path d="M44.351 80.4837C43.4212 79.4377 48.7463 75.3035 49.846 74.2037" stroke="white" stroke-width="3.69231" stroke-linecap="round"/>
<path d="M33.361 94.2212C33.312 95.0544 32.2943 95.89 32.7505 95.0062C33.2677 94.004 34.5053 91.823 35.3235 91.1684C36.4809 90.2425 37.6609 89.23 38.856 88.3337" stroke="white" stroke-width="3.69231" stroke-linecap="round"/>
<path d="M60.8361 62.4288C61.2464 64.6857 64.7806 67.7373 66.7236 68.7088" stroke="white" stroke-width="3.69231" stroke-linecap="round"/>
<path d="M72.2184 76.1662C73.1692 75.4268 77.1878 79.9581 78.1059 80.8762" stroke="white" stroke-width="3.69231" stroke-linecap="round"/>
<path d="M85.5635 91.0813C85.5635 92.4975 88.7547 95.0575 89.881 96.1838" stroke="white" stroke-width="3.69231" stroke-linecap="round"/>
<path d="M95.7685 20.0388C98.6135 19.7227 101.717 17.2504 104.011 15.7213" stroke="white" stroke-width="3.69231" stroke-linecap="round"/>
<path d="M47.8835 51.0463C51.2231 51.0463 50.488 52.6071 52.5935 54.1863" stroke="white" stroke-width="3.69231" stroke-linecap="round"/>
<path d="M84.7786 32.2063C86.8789 31.9729 90.2481 28.7376 91.0586 26.7113" stroke="white" stroke-width="3.69231" stroke-linecap="round"/>
<path d="M42.4615 45.5385C42.4615 43.4992 44.1147 41.8461 46.1539 41.8461V41.8461C48.1931 41.8461 49.8462 43.4992 49.8462 45.5385V45.5385C49.8462 47.5777 48.1931 49.2308 46.1539 49.2308V49.2308C44.1147 49.2308 42.4615 47.5777 42.4615 45.5385V45.5385Z" fill="white"/>
<path d="M57.8461 44.5387C58.4437 45.5007 58.8671 46.006 59.8614 46.477C60.3805 46.7228 61.1577 46.3422 61.6584 46.2459C62.599 46.065 63.5446 45.1563 63.9689 44.3077" stroke="black" stroke-width="3.69231" stroke-linecap="round"/>
<g clip-path="url(#clip0_12_2)">
<rect x="28.3077" y="33.2308" width="24.6154" height="24.6154" rx="12.3077" fill="white"/>
<rect x="33.2307" y="35.6923" width="19.6923" height="19.6923" rx="9.84615" fill="black"/>
<rect x="34.4615" y="38.1539" width="7.38462" height="7.38462" rx="3.69231" fill="white"/>
</g>
<g clip-path="url(#clip1_12_2)">
<rect x="70.1538" y="34.4615" width="24.6154" height="24.6154" rx="12.3077" fill="white"/>
<rect x="75.0769" y="36.9231" width="19.6923" height="19.6923" rx="9.84615" fill="black"/>
<rect x="76.3077" y="39.3846" width="7.38462" height="7.38462" rx="3.69231" fill="white"/>
</g>
<defs>
<clipPath id="clip0_12_2">
<rect x="28.3077" y="33.2308" width="24.6154" height="24.6154" rx="12.3077" fill="white"/>
</clipPath>
<clipPath id="clip1_12_2">
<rect x="70.1538" y="34.4615" width="24.6154" height="24.6154" rx="12.3077" fill="white"/>
</clipPath>
</defs>
</svg>
